<svg width="268" height="214" viewBox="0 0 268 214" fill="none" xmlns="http://www.w3.org/2000/svg">
<path d="M136.6 0.879178C136.676 0.565012 136.714 0.407929 136.801 0.290884C136.877 0.187623 136.98 0.106759 137.098 0.0567192C137.232 0 137.394 0 137.717 0H237.714C254.047 0 267.288 13.6823 267.288 30.5603V149.206C267.288 166.084 254.047 179.766 237.714 179.766H94.7818C94.2834 179.766 94.0342 179.766 93.8631 179.663C93.7131 179.572 93.6013 179.43 93.5487 179.263C93.4887 179.073 93.5473 178.831 93.6645 178.346L136.6 0.879178Z" fill="#121212"/>
<path d="M110.265 35.474C110.381 34.9903 110.439 34.7484 110.378 34.5581C110.326 34.3913 110.214 34.2496 110.064 34.1593C109.893 34.0564 109.644 34.0564 109.147 34.0564H29.3224C13.1281 34.0564 0 47.7387 0 64.6166V183.262C0 200.14 13.1281 213.822 29.3224 213.822H128.457C128.781 213.822 128.943 213.822 129.077 213.766C129.195 213.715 129.298 213.634 129.375 213.531C129.461 213.413 129.499 213.256 129.575 212.941L133.035 198.516C133.151 198.032 133.209 197.79 133.149 197.6C133.096 197.433 132.984 197.291 132.834 197.201C132.663 197.098 132.415 197.098 131.917 197.098H72.953C72.4556 197.098 72.2068 197.098 72.0359 196.995C71.886 196.905 71.7742 196.763 71.7214 196.597C71.6612 196.406 71.7192 196.164 71.8353 195.681L110.265 35.474Z" fill="#121212"/>
</svg>
